HIERARCHY
ROOT Hips
{
	OFFSET 0.000000 0.000000 0.000000
	CHANNELS 6 Xposition Yposition Zposition Zrotation Yrotation Xrotation 
	JOINT LHipJoint
	{
		OFFSET 0.000000 0.000000 0.000000
		CHANNELS 3 Zrotation Yrotation Xrotation
		JOINT LeftUpLeg
		{
			OFFSET 1.363060 -1.794630 0.839290
			CHANNELS 3 Zrotation Yrotation Xrotation
			JOINT LeftLeg
			{
				OFFSET 2.448110 -6.726130 0.000000
				CHANNELS 3 Zrotation Yrotation Xrotation
				JOINT LeftFoot
				{
					OFFSET 2.562200 -7.039590 0.000000
					CHANNELS 3 Zrotation Yrotation Xrotation
					JOINT LeftToeBase
					{
						OFFSET 0.157640 -0.433110 2.322550
						CHANNELS 3 Zrotation Yrotation Xrotation
						End Site
						{
							OFFSET 0.000000 0.000000 0.000000
						}
					}
				}
			}
		}
	}
	JOINT RHipJoint
	{
		OFFSET 0.000000 0.000000 0.000000
		CHANNELS 3 Zrotation Yrotation Xrotation
		JOINT RightUpLeg
		{
			OFFSET -1.305520 -1.794630 0.839290
			CHANNELS 3 Zrotation Yrotation Xrotation
			JOINT RightLeg
			{
				OFFSET -2.542530 -6.985550 0.000000
				CHANNELS 3 Zrotation Yrotation Xrotation
				JOINT RightFoot
				{
					OFFSET -2.568260 -7.056230 0.000000
					CHANNELS 3 Zrotation Yrotation Xrotation
					JOINT RightToeBase
					{
						OFFSET -0.164730 -0.452590 2.363150
						CHANNELS 3 Zrotation Yrotation Xrotation
						End Site
						{
							OFFSET 0.000000 0.000000 0.000000
						}
					}
				}
			}
		}
	}
	JOINT LowerBack
	{
		OFFSET 0.000000 0.000000 0.000000
		CHANNELS 3 Zrotation Yrotation Xrotation
		JOINT Spine
		{
			OFFSET 0.028270 2.035590 -0.193380
			CHANNELS 3 Zrotation Yrotation Xrotation
			JOINT Spine1
			{
				OFFSET 0.056720 2.048850 -0.042750
				CHANNELS 3 Zrotation Yrotation Xrotation
				JOINT Neck
				{
					OFFSET 0.000000 0.000000 0.000000
					CHANNELS 3 Zrotation Yrotation Xrotation
					JOINT Neck1
					{
						OFFSET -0.054170 1.746240 0.172020
						CHANNELS 3 Zrotation Yrotation Xrotation
						JOINT Head
						{
							OFFSET 0.104070 1.761360 -0.123970
							CHANNELS 3 Zrotation Yrotation Xrotation
							End Site
							{
								OFFSET 0.000000 0.000000 0.000000
							}
						}
					}
				}
				JOINT LeftShoulder
				{
					OFFSET 0.000000 0.000000 0.000000
					CHANNELS 3 Zrotation Yrotation Xrotation
					JOINT LeftArm
					{
						OFFSET 3.362410 1.200890 -0.311210
						CHANNELS 3 Zrotation Yrotation Xrotation
						JOINT LeftForeArm
						{
							OFFSET 4.983000 -0.000000 -0.000000
							CHANNELS 3 Zrotation Yrotation Xrotation
							JOINT LeftHand
							{
								OFFSET 3.483560 -0.000000 -0.000000
								CHANNELS 3 Zrotation Yrotation Xrotation
								JOINT LeftFingerBase
								{
									OFFSET 0.000000 0.000000 0.000000
									CHANNELS 3 Zrotation Yrotation Xrotation
									JOINT LeftHandIndex1
									{
										OFFSET 0.715260 -0.000000 -0.000000
										CHANNELS 3 Zrotation Yrotation Xrotation
										End Site
										{
											OFFSET 0.000000 0.000000 0.000000
										}
									}
								}
								JOINT LThumb
								{
									OFFSET 0.000000 0.000000 0.000000
									CHANNELS 3 Zrotation Yrotation Xrotation
									End Site
									{
										OFFSET 0.000000 0.000000 0.000000
									}
								}
							}
						}
					}
				}
				JOINT RightShoulder
				{
					OFFSET 0.000000 0.000000 0.000000
					CHANNELS 3 Zrotation Yrotation Xrotation
					JOINT RightArm
					{
						OFFSET -3.136600 1.374050 -0.404650
						CHANNELS 3 Zrotation Yrotation Xrotation
						JOINT RightForeArm
						{
							OFFSET -5.241900 -0.000000 -0.000000
							CHANNELS 3 Zrotation Yrotation Xrotation
							JOINT RightHand
							{
								OFFSET -3.444170 -0.000000 -0.000000
								CHANNELS 3 Zrotation Yrotation Xrotation
								JOINT RightFingerBase
								{
									OFFSET 0.000000 0.000000 0.000000
									CHANNELS 3 Zrotation Yrotation Xrotation
									JOINT RightHandIndex1
									{
										OFFSET -0.622530 -0.000000 -0.000000
										CHANNELS 3 Zrotation Yrotation Xrotation
										End Site
										{
											OFFSET 0.000000 0.000000 0.000000
										}
									}
								}
								JOINT RThumb
								{
									OFFSET 0.000000 0.000000 0.000000
									CHANNELS 3 Zrotation Yrotation Xrotation
									End Site
									{
										OFFSET 0.000000 0.000000 0.000000
									}
								}
							}
						}
					}
				}
			}
		}
	}
}
MOTION
Frames: 4
Frame Time: 0.008333
-8.966890 17.024833 -1.390520 166.651639 89.478274 175.545502 -9.397730 1.441417 5.529447 -14.616437 -9.572375 -28.089889 -2.834612 -0.235809 12.470723 -0.389456 -3.497240 0.468331 -0.175700 0.000001 -17.545300 10.583949 -4.690341 -1.546149 5.459238 -18.037028 -1.943897 0.558846 -2.860681 37.084681 0.312769 17.791585 23.954337 8.957800 -0.000000 -77.441300 -2.765030 2.528418 -5.524780 -1.898022 2.476125 -3.755911 -7.729971 2.458629 1.845365 12.320287 -7.833126 -8.939306 -3.551650 -0.269813 -0.353452 0.000000 0.000000 0.000000 -1.371808 25.414588 0.493476 -64.605947 17.267956 -11.582337 -2.477259 -43.781892 0.019465 13.375367 -1.755690 -0.200945 -0.163952 -0.053612 -0.000000 0.000000 0.000000 0.000000 0.000000 0.000000 0.000000 19.084806 0.467565 -0.695973 71.965452 13.810819 3.021453 2.546512 42.954131 0.008869 -0.504771 7.064907 -0.035010 0.066227 -0.232839 0.000000 0.000000 0.000000 0.000000 0.000000 0.000000 0.000000 
-8.798438 17.016167 -1.377160 147.742207 89.337798 156.484107 -9.167862 1.640752 5.454881 -15.317219 -9.340618 -27.814795 -2.889764 -0.137734 13.473607 -0.387800 -3.504376 0.408584 -0.174400 0.000001 -15.484200 10.986414 -4.543408 -1.602736 4.686478 -18.622149 -3.095123 0.304811 -2.912583 39.637415 0.105656 17.571993 25.799931 9.425500 -0.000000 -75.503301 -2.956426 2.404151 -5.421496 -1.961522 2.384526 -3.740387 -7.744784 2.377037 1.828354 12.351049 -7.816058 -8.946694 -3.583034 -0.272156 -0.357387 0.000000 0.000000 0.000000 -1.412345 25.241370 0.477481 -64.361050 16.927292 -11.571269 -2.467925 -43.815380 0.019460 13.600964 -1.757327 -0.204643 -0.162756 -0.052844 -0.000000 0.000000 0.000000 0.000000 0.000000 0.000000 0.000000 19.280842 0.424720 -0.673351 72.364444 13.510750 2.639421 2.581033 41.990872 0.008694 -0.629652 7.137077 -0.043528 0.068142 -0.228981 0.000000 0.000000 0.000000 0.000000 0.000000 0.000000 0.000000 
-8.634281 17.008439 -1.365475 135.176998 89.056793 143.794361 -9.011150 1.741935 5.402913 -15.926472 -9.330149 -27.493239 -2.916200 -0.057088 14.472333 -0.367938 -3.384123 0.147657 -0.150600 0.000000 -13.593200 11.270734 -4.426282 -1.680076 4.008561 -19.109490 -4.277794 0.093267 -2.986211 42.173215 -0.105603 16.863273 27.408045 9.544800 -0.000000 -73.092001 -3.200336 2.259177 -5.311592 -2.018818 2.272183 -3.721856 -7.743019 2.269700 1.806408 12.351393 -7.794123 -8.949322 -3.610958 -0.274209 -0.360590 0.000000 0.000000 0.000000 -1.474060 25.016450 0.474716 -64.168964 16.545288 -11.539649 -2.461842 -43.796735 0.019371 13.832414 -1.748493 -0.207145 -0.161403 -0.051908 -0.000000 0.000000 0.000000 0.000000 0.000000 0.000000 0.000000 19.425949 0.356729 -0.655409 72.760711 13.211819 2.213362 2.609125 41.001139 0.008354 -0.817595 7.231393 -0.056449 0.070383 -0.225082 0.000000 0.000000 0.000000 0.000000 0.000000 0.000000 0.000000 
-8.474372 17.001997 -1.355707 126.703526 88.745664 135.214619 -8.893754 1.801436 5.378378 -16.443516 -9.525578 -27.118188 -2.921897 0.013425 15.418241 -0.324316 -3.119054 -0.296625 -0.107000 -0.000000 -11.935900 11.477724 -4.291360 -1.777143 3.414592 -19.484782 -5.471912 -0.096980 -3.066839 44.689164 -0.315983 15.631563 28.691295 9.247600 -0.000000 -70.380501 -3.452230 2.120895 -5.194335 -2.066142 2.163265 -3.701555 -7.729286 2.162021 1.783543 12.324933 -7.766514 -8.950417 -3.634762 -0.275840 -0.363449 0.000000 0.000000 0.000000 -1.556836 24.773102 0.475895 -64.031561 16.106439 -11.477666 -2.458675 -43.718349 0.019217 14.055762 -1.734159 -0.208750 -0.159850 -0.050874 -0.000000 0.000000 0.000000 0.000000 0.000000 0.000000 0.000000 19.519661 0.281621 -0.638108 73.148178 12.914721 1.750653 2.632517 39.993663 0.007889 -1.062203 7.342800 -0.073673 0.072952 -0.221199 0.000000 0.000000 0.000000 0.000000 0.000000 0.000000 0.000000 
